# xmcd
#
# Track frame offsets: 
#        150
#        14305
#        28098
#        42250
#        54658
#        68625
#        84337
#        97692
#        111864
#        124428
#        139046
#        153539
#        166811
#        180421
#        193079
#        204451
#        217024
#        229453
#        243632
#        258195
#        273198
#        286641
#        301068
#        315200
#        330506
#
# Disc length: 4583 seconds
#
# Revision: 2
# Processed by: cddbd v1.5.2PL0 Copyright (c) Steve Scherf et al.
# Submitted via: ExactAudioCopyFreeDBPlugin 1.0
#
DISCID=5211e519
DTITLE=Various Artist - When the Levee Breaks:  Mississippi Blues Rar
DTITLE=e Cuts, 1926-1941 [JSP Records]
DYEAR=2007
DGENRE=Blues
TTITLE0=King Solomon Hill - My Buddy Blind Papa Lemon
TTITLE1=Buddy Boy Hawkins - Snatch it Back Blues
TTITLE2=Willie "61" Blackwell - Machine Gun Blues
TTITLE3=Arthur Petties - Revenue Man Blues
TTITLE4=Freddie Spruell - Mr. Freddie's Kokomo Blues
TTITLE5=Geeshie Wiley - Over to My House
TTITLE6=Jelly Jaw Short - Barefoot Blues
TTITLE7=Garfield Akers - Jumpin' and Shoutin' Blues
TTITLE8=Joe McCoy - Look Who's Coming Down the Road
TTITLE9=Joe Calicott - Traveling Mama Blues
TTITLE10=William Harris - Leavin' Here Blues
TTITLE11=Otto Virgial - Got the Blues About Rome
TTITLE12=Mose Andrews - Young Heffer Blues
TTITLE13=Mississippi Jook Band - Skippy Whippy
TTITLE14=Sam Collins - Young Dog Blues
TTITLE15=Sam Butler - You Can't Keep No Brown
TTITLE16=Mattie Delaney - Tallahatchie River Blues
TTITLE17=Mississippi Bracey - Stered Gal
TTITLE18=Charlie McCoy - Motherless and Fatherless Blues
TTITLE19=Willie "61" Blackwell - Don't Misuse Me, Baby
TTITLE20=Robert Lockwood - I'm Gonna Train My Baby
TTITLE21=Arthur Petties - Out on Santa Fe Blues
TTITLE22=Joe Stone - It's Hard Time
TTITLE23=Freddie Spruell - Your Good Man is Gone
TTITLE24=Blind Joe Reynolds - Cold Woman Blues
EXTD=
EXTT0=
EXTT1=
EXTT2=
EXTT3=
EXTT4=
EXTT5=
EXTT6=
EXTT7=
EXTT8=
EXTT9=
EXTT10=
EXTT11=
EXTT12=
EXTT13=
EXTT14=
EXTT15=
EXTT16=
EXTT17=
EXTT18=
EXTT19=
EXTT20=
EXTT21=
EXTT22=
EXTT23=
EXTT24=
PLAYORDER=
